<mxfile host="app.diagrams.net" modified="2023-05-26T04:54:59.320Z" agent="Mozilla/5.0 (Windows NT 10.0; Win64; x64) AppleWebKit/537.36 (KHTML, like Gecko) Chrome/113.0.0.0 Safari/537.36" etag="p94OdF4_bMJjBn_jBvEw" version="21.3.2" type="device">
  <diagram name="페이지-1" id="0ovcC4mYTu4m9HhibKaI">
    <mxGraphModel dx="989" dy="543" grid="1" gridSize="10" guides="1" tooltips="1" connect="1" arrows="1" fold="1" page="1" pageScale="1" pageWidth="4681" pageHeight="3300" math="0" shadow="0">
      <root>
        <mxCell id="0" />
        <mxCell id="1" parent="0" />
        <mxCell id="Eelql4ZmqJmR4dQvURMg-7" style="rounded=0;orthogonalLoop=1;jettySize=auto;html=1;entryX=0.5;entryY=0;entryDx=0;entryDy=0;exitX=0.5;exitY=1;exitDx=0;exitDy=0;" edge="1" parent="1" source="Eelql4ZmqJmR4dQvURMg-1" target="Eelql4ZmqJmR4dQvURMg-2">
          <mxGeometry relative="1" as="geometry" />
        </mxCell>
        <mxCell id="Eelql4ZmqJmR4dQvURMg-8" style="edgeStyle=none;shape=connector;rounded=0;orthogonalLoop=1;jettySize=auto;html=1;entryX=0.5;entryY=0;entryDx=0;entryDy=0;labelBackgroundColor=default;strokeColor=default;fontFamily=Helvetica;fontSize=11;fontColor=default;endArrow=classic;exitX=0.5;exitY=1;exitDx=0;exitDy=0;" edge="1" parent="1" source="Eelql4ZmqJmR4dQvURMg-1" target="Eelql4ZmqJmR4dQvURMg-3">
          <mxGeometry relative="1" as="geometry" />
        </mxCell>
        <mxCell id="Eelql4ZmqJmR4dQvURMg-9" style="edgeStyle=none;shape=connector;rounded=0;orthogonalLoop=1;jettySize=auto;html=1;entryX=0.5;entryY=0;entryDx=0;entryDy=0;labelBackgroundColor=default;strokeColor=default;fontFamily=Helvetica;fontSize=11;fontColor=default;endArrow=classic;" edge="1" parent="1" source="Eelql4ZmqJmR4dQvURMg-1" target="Eelql4ZmqJmR4dQvURMg-4">
          <mxGeometry relative="1" as="geometry" />
        </mxCell>
        <mxCell id="Eelql4ZmqJmR4dQvURMg-10" style="edgeStyle=none;shape=connector;rounded=0;orthogonalLoop=1;jettySize=auto;html=1;entryX=0.5;entryY=0;entryDx=0;entryDy=0;labelBackgroundColor=default;strokeColor=default;fontFamily=Helvetica;fontSize=11;fontColor=default;endArrow=classic;exitX=0.5;exitY=1;exitDx=0;exitDy=0;" edge="1" parent="1" source="Eelql4ZmqJmR4dQvURMg-1" target="Eelql4ZmqJmR4dQvURMg-5">
          <mxGeometry relative="1" as="geometry" />
        </mxCell>
        <mxCell id="Eelql4ZmqJmR4dQvURMg-11" style="edgeStyle=none;shape=connector;rounded=0;orthogonalLoop=1;jettySize=auto;html=1;entryX=0.5;entryY=0;entryDx=0;entryDy=0;labelBackgroundColor=default;strokeColor=default;fontFamily=Helvetica;fontSize=11;fontColor=default;endArrow=classic;exitX=0.5;exitY=1;exitDx=0;exitDy=0;" edge="1" parent="1" source="Eelql4ZmqJmR4dQvURMg-1" target="Eelql4ZmqJmR4dQvURMg-6">
          <mxGeometry relative="1" as="geometry" />
        </mxCell>
        <mxCell id="Eelql4ZmqJmR4dQvURMg-1" value="메모장" style="rounded=1;arcSize=10;whiteSpace=wrap;html=1;align=center;" vertex="1" parent="1">
          <mxGeometry x="717" y="266" width="110" height="60" as="geometry" />
        </mxCell>
        <mxCell id="Eelql4ZmqJmR4dQvURMg-2" value="일련번호" style="ellipse;whiteSpace=wrap;html=1;align=center;fontStyle=4;" vertex="1" parent="1">
          <mxGeometry x="471" y="427" width="100" height="40" as="geometry" />
        </mxCell>
        <mxCell id="Eelql4ZmqJmR4dQvURMg-3" value="작성자" style="ellipse;whiteSpace=wrap;html=1;align=center;" vertex="1" parent="1">
          <mxGeometry x="600" y="427" width="100" height="40" as="geometry" />
        </mxCell>
        <mxCell id="Eelql4ZmqJmR4dQvURMg-4" value="작성일자" style="ellipse;whiteSpace=wrap;html=1;align=center;" vertex="1" parent="1">
          <mxGeometry x="725" y="427" width="100" height="40" as="geometry" />
        </mxCell>
        <mxCell id="Eelql4ZmqJmR4dQvURMg-5" value="제목" style="ellipse;whiteSpace=wrap;html=1;align=center;" vertex="1" parent="1">
          <mxGeometry x="850" y="427" width="100" height="40" as="geometry" />
        </mxCell>
        <mxCell id="Eelql4ZmqJmR4dQvURMg-6" value="내용" style="ellipse;whiteSpace=wrap;html=1;align=center;" vertex="1" parent="1">
          <mxGeometry x="980" y="427" width="100" height="40" as="geometry" />
        </mxCell>
      </root>
    </mxGraphModel>
  </diagram>
</mxfile>
